<?xml version="1.0" encoding="UTF-8"?>
<svg width="21px" height="20px" viewBox="0 0 21 20" version="1.1" xmlns="http://www.w3.org/2000/svg" xmlns:xlink="http://www.w3.org/1999/xlink">
    <!-- Generator: Sketch 61.2 (89653) - https://sketch.com -->
    <title>Group 6</title>
    <desc>Created with Sketch.</desc>
    <g id="Page-1" stroke="none" stroke-width="1" fill="none" fill-rule="evenodd">
        <g id="Desktop-HD-Copy-4" transform="translate(-553.000000, -870.000000)" fill="#FFBF08">
            <g id="Group" transform="translate(401.000000, 839.000000)">
                <g id="Group-6" transform="translate(152.000000, 31.000000)">
                    <path d="M8.00668246,14.000026 C7.47230998,13.464979 6.9812623,12.9731771 6.49999763,12.4912172 C9.9313418,9.05039351 13.3746652,5.59744126 16.8437438,2.11874075 L12.0110321,2.11874075 L12.0110321,2.60306561e-05 L20.4999976,2.60306561e-05 L20.4999976,8.45490265 L18.3825729,8.45490265 L18.3825729,3.70141428 C18.3614096,3.69216876 18.3402463,3.68292324 18.3190831,3.67357831 C14.8795531,7.11778211 11.4400232,10.5620853 8.00668246,14.000026" id="Fill-4"></path>
                    <path d="M9.39393253,0.00101625111 C9.39393253,0.717783351 9.39362007,1.40132629 9.39414084,2.08497337 C9.39424499,2.27150779 9.25519935,2.22724362 9.15177439,2.22745192 C8.10158923,2.22943079 7.05150822,2.22849343 6.00132306,2.22849343 C4.92562015,2.22838928 3.8498131,2.22838928 2.75088384,2.22838928 L2.75088384,17.7543854 L18.2597325,17.7543854 L18.2597325,11.1289244 L20.4873791,11.1289244 C20.4911286,11.2115162 20.498836,11.3026483 20.4989402,11.3936762 C20.4995651,13.4852364 20.5010233,15.5769007 20.498836,17.6684608 C20.4973779,19.0463784 19.5525966,19.9979018 18.1808879,19.9984226 C13.0601547,20.0004014 7.93952555,20.0007139 2.81889643,19.9984226 C1.44447975,19.9977977 0.501677396,19.0482531 0.50126078,17.6689816 C0.49969847,12.5572511 0.499386008,7.44552058 0.501469088,2.33368593 C0.501989859,0.953268735 1.44447975,0.00455738471 2.81764658,0.00205776099 C4.91801691,-0.00179582557 7.01828308,0.00101625111 9.11865341,0.00101625111 L9.39393253,0.00101625111 Z" id="Fill-1"></path>
                </g>
            </g>
        </g>
    </g>
</svg>